<svg width="18" height="18" viewBox="0 0 18 18" fill="none" xmlns="http://www.w3.org/2000/svg">
<path d="M12.7828 4.33535C12.7698 4.3209 12.754 4.30922 12.7364 4.301C12.7148 4.57593 12.6464 4.84516 12.5343 5.09711C12.5707 5.97404 12.2312 6.4509 12.0615 6.63074C12.0522 6.63957 12.0409 6.6459 12.0285 6.64911C12.0162 6.65231 12.0032 6.65229 11.9908 6.64905C11.9784 6.64581 11.9671 6.63945 11.9579 6.63058C11.9487 6.62172 11.9419 6.61064 11.9382 6.59841C10.8148 2.70877 8.58606 1.37316 7.81824 1.01754C7.79011 1.00437 7.75913 0.998458 7.72814 1.00034C7.69714 1.00223 7.66711 1.01185 7.64078 1.02832C7.61446 1.0448 7.59268 1.06761 7.57744 1.09467C7.5622 1.12173 7.55398 1.15217 7.55354 1.18323C7.54048 2.22497 7.34206 3.25606 6.96757 4.22825C6.40786 5.67096 5.06619 7.4612 4.59944 8.06737C4.58974 8.07946 4.57645 8.08814 4.56148 8.09214C4.54651 8.09614 4.53065 8.09526 4.51622 8.08962C4.50179 8.08399 4.48953 8.07389 4.48124 8.0608C4.47295 8.04771 4.46905 8.03232 4.47012 8.01686C4.49033 7.60464 4.44393 7.19185 4.33272 6.7944C4.21755 6.94999 4.11652 7.08335 4.03973 7.18236C4.02892 7.19573 4.01411 7.20531 3.99748 7.20969C3.98084 7.21407 3.96324 7.21303 3.94724 7.20672C3.93124 7.20041 3.91766 7.18915 3.9085 7.1746C3.89933 7.16004 3.89505 7.14294 3.89627 7.12578C3.91739 6.78173 3.89156 6.4364 3.81949 6.09932C3.79813 6.12132 3.78281 6.14846 3.77504 6.17812C3.52044 7.17831 2.75262 8.50988 2.58895 8.87763C2.38689 9.33024 1.20889 12.0318 2.89204 14.6343C4.53276 17.1701 8.06273 17.6429 10.0025 17.3823C11.9423 17.1216 15.6015 14.6606 15.6783 10.7628C15.7369 7.79459 13.7365 5.33756 12.7828 4.33535Z" fill="#FF6644"/>
<path d="M8.55775 17.2408C8.25026 17.2413 7.94331 17.2149 7.6404 17.162C6.49877 16.96 5.42988 16.0164 4.97929 14.8141C4.5287 13.6119 5.00556 12.0661 5.66629 11.0376C6.05602 10.4225 6.29744 9.72527 6.37147 9.00087C6.76161 9.38835 7.02329 9.88632 7.12111 10.4274C7.13394 10.5252 7.18211 10.615 7.25655 10.6798C7.331 10.7445 7.42656 10.7798 7.52523 10.779C7.59806 10.7777 7.66918 10.7567 7.73107 10.7183C7.79296 10.6799 7.84332 10.6255 7.87681 10.5608C8.56381 9.22112 8.32336 7.80266 8.11726 7.07727C12.4514 9.85558 13.0152 12.3712 12.7262 13.9937C12.4252 15.6688 11.132 16.8104 10.3015 16.9923L10.154 17.0267C9.62931 17.1633 9.08984 17.2353 8.54765 17.2408H8.55775Z" fill="url(#paint0_linear_789_110)"/>
<defs>
<linearGradient id="paint0_linear_789_110" x1="9" y1="8" x2="9" y2="18" gradientUnits="userSpaceOnUse">
<stop stop-color="#FFBA33"/>
<stop offset="1" stop-color="white"/>
</linearGradient>
</defs>
</svg>
