<svg width="9" height="13" viewBox="0 0 9 13" fill="none" xmlns="http://www.w3.org/2000/svg">
<path d="M7.54292 5.44444C6.15677 4.11111 5.69469 1 5.69469 1C5.69469 1 3.38445 2.33333 2.92239 5.44444C2.46034 8.55556 2.4604 4.55556 2.4604 4.55556C2.4604 4.55556 0.612051 6.33344 1.07417 9.4445C1.53629 12.5556 3.84655 13 5.2327 13C7.1592 13 8.46702 11.6667 8.92907 9.4445C9.29871 7.66677 8.13192 6.011 7.54292 5.44444Z" fill="#E09B98"/>
<path d="M3 9.81818C3 7.78182 4.77778 6.42424 5.66667 6C5.13333 7.01818 5.88889 8.12121 6.33333 8.54545C6.86667 9.05455 7 9.60606 7 9.81818C7 12.3636 5.88889 13 5 13C3.4 13 3 10.8788 3 9.81818Z" fill="url(#paint0_linear)"/>
<defs>
<linearGradient id="paint0_linear" x1="5.05207" y1="6" x2="5.05207" y2="13" gradientUnits="userSpaceOnUse">
<stop stop-color="#FFF4B8"/>
<stop offset="1" stop-color="white"/>
</linearGradient>
</defs>
</svg>
