<svg width="20" height="16" viewBox="0 0 20 16" fill="none" xmlns="http://www.w3.org/2000/svg">
<path d="M2.8495 16C1.2785 16 0 14.753 0 13.2208V4.88145C0 3.34933 1.2785 2.10279 2.8495 2.10279H5.633L5.5975 1.29067C5.59723 0.949706 5.73621 0.622516 5.98404 0.380649C6.23187 0.138782 6.56839 0.00192261 6.92 0L13.28 0C13.9 0 14.4025 0.489697 14.4025 1.09527V2.10279H17.1505C18.7215 2.10279 20 3.34982 20 4.88194V13.2233C19.9975 14.7554 18.7215 16 17.1505 16H2.85H2.8495ZM2.654 0.848485H3.721C3.944 0.848485 4.125 1.024 4.125 1.23976V1.81818H2.25V1.23976C2.25 1.024 2.431 0.848485 2.654 0.848485ZM6.125 8.84848C6.125 10.9881 7.9185 12.7273 10.125 12.7273C12.3315 12.7273 14.125 10.9862 14.125 8.84848C14.125 6.70885 12.329 4.9697 10.125 4.9697C7.9185 4.9697 6.125 6.71079 6.125 8.84848ZM16.7265 6.0257C16.9861 6.02454 17.2346 5.92368 17.4176 5.74519C17.6006 5.56671 17.7033 5.32516 17.703 5.07345C17.7035 4.94871 17.6787 4.82509 17.6298 4.70968C17.581 4.59426 17.5092 4.48932 17.4185 4.40087C17.3278 4.31241 17.22 4.24218 17.1012 4.19419C16.9825 4.1462 16.8551 4.1214 16.7265 4.12121C16.4668 4.12211 16.2182 4.22289 16.0351 4.40143C15.852 4.57997 15.7495 4.82167 15.75 5.07345C15.7495 5.32524 15.852 5.56694 16.0351 5.74548C16.2182 5.92401 16.4668 6.0248 16.7265 6.0257ZM7.125 8.84848C7.125 7.24461 8.471 5.93939 10.125 5.93939C11.7815 5.93939 13.125 7.24461 13.125 8.84848C13.125 10.4524 11.779 11.7576 10.125 11.7576C8.471 11.7576 7.125 10.4524 7.125 8.84848Z" fill="#101010" fill-opacity="0.1"/>
</svg>
