<svg width="20" height="20" viewBox="0 0 20 20" fill="none" xmlns="http://www.w3.org/2000/svg">
<path d="M15.0911 6.25C15.0911 6.25 13.6316 5.12857 11.9089 5L11.7535 5.305C13.311 5.68 14.0257 6.21571 14.7726 6.875C13.4846 6.22929 12.2148 5.625 10 5.625C7.7852 5.625 6.5147 6.22929 5.2274 6.875C5.9743 6.21571 6.8248 5.62 8.2465 5.305L8.0911 5C6.2837 5.16714 4.9089 6.25 4.9089 6.25C4.9089 6.25 3.28 8.57071 3 13.125C4.6415 14.985 7.137 15 7.137 15L7.6585 14.3171C6.7723 14.015 5.7734 13.475 4.9089 12.5C5.94 13.2657 7.494 14.0629 10 14.0629C12.506 14.0629 14.06 13.2657 15.0911 12.5C14.2273 13.475 13.2277 14.015 12.3415 14.3171L12.8637 15C12.8637 15 15.3578 14.9857 17 13.125C16.72 8.57071 15.0911 6.25 15.0911 6.25ZM7.9315 11.875C7.3162 11.875 6.8185 11.3157 6.8185 10.625C6.8185 9.93429 7.3162 9.375 7.9315 9.375C8.5475 9.375 9.0452 9.93429 9.0452 10.625C9.0452 11.3157 8.5475 11.875 7.9322 11.875H7.9315ZM12.0685 11.875C11.4525 11.875 10.9548 11.3157 10.9548 10.625C10.9548 9.93429 11.4525 9.375 12.0678 9.375C12.6838 9.375 13.1815 9.93429 13.1815 10.625C13.1815 11.3157 12.6838 11.875 12.0685 11.875Z" fill="#616568"/>
</svg>
