<svg width="13" height="12" viewBox="0 0 13 12" fill="none" xmlns="http://www.w3.org/2000/svg">
<path d="M10.6364 1.77273H11.2273C11.6974 1.77273 12.1483 1.9595 12.4808 2.29195C12.8132 2.6244 13 3.0753 13 3.54545V8.57586C13 8.76885 12.962 8.95995 12.8881 9.13825C12.8143 9.31655 12.706 9.47856 12.5696 9.61502C12.4331 9.75149 12.2711 9.85974 12.0928 9.93359C11.9145 10.0074 11.7234 10.0455 11.5304 10.0455H10.988C10.8565 10.0454 10.7287 10.0891 10.6249 10.1698C10.5211 10.2505 10.4471 10.3635 10.4148 10.491C10.1577 11.5068 10.02 11.8276 9.45986 11.8276C9.04918 11.8276 8.68223 11.4701 7.59732 10.2446C7.54185 10.182 7.47371 10.1318 7.39741 10.0975C7.32111 10.0632 7.23839 10.0454 7.15473 10.0455H5.32882C5.17212 10.0454 5.02184 9.98316 4.91104 9.87235C4.80024 9.76154 4.738 9.61125 4.738 9.45455C4.738 9.29784 4.80024 9.14756 4.91104 9.03674C5.02184 8.92593 5.17212 8.86366 5.32882 8.86364H7.15473C7.40563 8.86362 7.65367 8.91687 7.88246 9.01986C8.11124 9.12284 8.31556 9.27322 8.48191 9.46105C8.78741 9.80614 9.04209 10.0839 9.24595 10.293L9.26959 10.2009C9.36647 9.81859 9.58805 9.47954 9.89928 9.23734C10.2105 8.99515 10.5936 8.86365 10.988 8.86364H11.5304C11.6894 8.86364 11.8182 8.73482 11.8182 8.57586V3.54545C11.8182 3.38874 11.7559 3.23844 11.6451 3.12762C11.5343 3.0168 11.384 2.95455 11.2273 2.95455H10.6364V6.85691C10.6364 7.51282 10.1051 8.04405 9.45455 8.04405H5.83523C5.18286 8.04405 4.33018 8.45768 3.92895 8.97236L3.57086 9.4315C3.17082 9.94441 2.80386 9.8345 2.75127 9.18155L2.75423 9.22291C2.70164 8.57173 2.13377 8.03164 1.47727 8.01745L1.18182 8.01036C0.866717 8.00298 0.56693 7.87295 0.346221 7.64794C0.125513 7.42293 0.00129858 7.12069 0 6.8055V1.17827C0 0.527682 0.527682 0 1.17886 0H9.4575C10.1087 0 10.6364 0.527682 10.6364 1.18714V1.77273ZM2.36364 1.77273C2.28603 1.77272 2.20918 1.78799 2.13748 1.81768C2.06577 1.84737 2.00062 1.8909 1.94574 1.94577C1.89086 2.00064 1.84733 2.06579 1.81763 2.13748C1.78792 2.20918 1.77264 2.28603 1.77264 2.36364C1.77264 2.44124 1.78792 2.51809 1.81763 2.58979C1.84733 2.66149 1.89086 2.72663 1.94574 2.7815C2.00062 2.83638 2.06577 2.8799 2.13748 2.90959C2.20918 2.93928 2.28603 2.95456 2.36364 2.95455H5.31818C5.39579 2.95456 5.47264 2.93928 5.54434 2.90959C5.61604 2.8799 5.6812 2.83638 5.73608 2.7815C5.79096 2.72663 5.83449 2.66149 5.86419 2.58979C5.89389 2.51809 5.90918 2.44124 5.90918 2.36364C5.90918 2.28603 5.89389 2.20918 5.86419 2.13748C5.83449 2.06579 5.79096 2.00064 5.73608 1.94577C5.6812 1.8909 5.61604 1.84737 5.54434 1.81768C5.47264 1.78799 5.39579 1.77272 5.31818 1.77273H2.36364ZM2.36364 4.13636C2.28603 4.13635 2.20918 4.15163 2.13748 4.18132C2.06577 4.21101 2.00062 4.25453 1.94574 4.30941C1.89086 4.36428 1.84733 4.42942 1.81763 4.50112C1.78792 4.57282 1.77264 4.64967 1.77264 4.72727C1.77264 4.80488 1.78792 4.88173 1.81763 4.95342C1.84733 5.02512 1.89086 5.09027 1.94574 5.14514C2.00062 5.20001 2.06577 5.24354 2.13748 5.27323C2.20918 5.30292 2.28603 5.31819 2.36364 5.31818H7.09091C7.24761 5.31816 7.39789 5.25589 7.50869 5.14508C7.61948 5.03426 7.68173 4.88398 7.68173 4.72727C7.68173 4.57057 7.61948 4.42028 7.50869 4.30947C7.39789 4.19865 7.24761 4.13639 7.09091 4.13636H2.36364Z" fill="#616568"/>
</svg>
