<svg width="20" height="20" viewBox="0 0 20 20" fill="none" xmlns="http://www.w3.org/2000/svg">
<path d="M15.9624 6.17512L17 5.21113V5H13.4064L10.8453 11.1931L7.93216 5H4.16419V5.21113L5.37617 6.62848C5.49466 6.73322 5.5556 6.88707 5.54036 7.04092V12.6105C5.5776 12.8118 5.51159 13.0164 5.36602 13.162L4 14.7709V14.9787H7.86953V14.7676L6.50521 13.1637C6.35794 13.018 6.28685 12.8151 6.31732 12.6121V7.79378L9.71458 14.982H10.109L13.0306 7.79378V13.5205C13.0306 13.671 13.0306 13.7021 12.929 13.802L11.8779 14.7889V15H16.9763V14.7889L15.9624 13.8249C15.8743 13.7594 15.8286 13.6498 15.8473 13.5434V6.45663C15.8286 6.35025 15.8743 6.24059 15.9624 6.17512V6.17512Z" fill="#616568"/>
</svg>
