<svg width="16" height="16" viewBox="0 0 16 16" fill="none" xmlns="http://www.w3.org/2000/svg">
<rect width="16" height="16" rx="5" fill="#101010" fill-opacity="0.1"/>
<path d="M7.40002 11.4C7.40002 11.5592 7.46324 11.7118 7.57576 11.8243C7.68828 11.9368 7.8409 12 8.00003 12C8.15916 12 8.31177 11.9368 8.42429 11.8243C8.53681 11.7118 8.60003 11.5592 8.60003 11.4C8.60003 11.2409 8.53681 11.0883 8.42429 10.9758C8.31177 10.8632 8.15916 10.8 8.00003 10.8C7.8409 10.8 7.68828 10.8632 7.57576 10.9758C7.46324 11.0883 7.40002 11.2409 7.40002 11.4Z" fill="#101010"/>
<path d="M8.00001 3C6.34365 3 5.00083 4.34234 5.00004 5.99853C5.00004 5.99903 5 5.99951 5 6.00001C5 6.33138 5.26863 6.60003 5.6 6.60003C5.93137 6.60003 6.2 6.3314 6.2 6.00001C6.2 5.00589 7.00591 4.2 8.00001 4.2C8.99411 4.2 9.8 5.00589 9.8 6.00001C9.8 6.99413 8.99411 7.80002 8.00001 7.80002C7.66889 7.80002 7.40045 8.06824 7.40005 8.39927C7.40005 8.39954 7.40001 8.39975 7.40001 8.40002C7.40001 8.40025 7.40005 8.4005 7.40005 8.40077V9.59925V9.60075C7.40045 9.93174 7.66891 10.2 8.00001 10.2C8.33115 10.2 8.59961 9.93174 8.60001 9.60075V9.59925V8.93993C9.96935 8.66195 11 7.45135 11 5.99999C11 4.34315 9.65683 3 8.00001 3Z" fill="#101010"/>
</svg>
