<svg width="19" height="19" viewBox="0 0 19 19" fill="none" xmlns="http://www.w3.org/2000/svg">
<path fill-rule="evenodd" clip-rule="evenodd" d="M15.5 8.5C15.5 12.0899 12.5899 15 9 15C5.41015 15 2.5 12.0899 2.5 8.5C2.5 4.91015 5.41015 2 9 2C12.5899 2 15.5 4.91015 15.5 8.5ZM13.8374 15.4902C12.4644 16.4422 10.7973 17 9 17C4.30558 17 0.5 13.1944 0.5 8.5C0.5 3.80558 4.30558 0 9 0C13.6944 0 17.5 3.80558 17.5 8.5C17.5 10.5177 16.797 12.3712 15.6225 13.829L18.5862 16.959C18.9659 17.36 18.9486 17.9929 18.5476 18.3727L18.2293 18.6741C17.8282 19.0538 17.1953 19.0365 16.8156 18.6355L13.8374 15.4902Z" fill="#101010"/>
</svg>
