
<svg width="30" height="30" viewBox="0 0 30 30" fill="none" xmlns="http://www.w3.org/2000/svg">
<rect x="0.5" y="0.5" width="29" height="29" rx="4.5" stroke="#C2C9D1"/>
<rect x="0.5" y="0.5" width="29" height="29" rx="4.5" stroke="white" stroke-opacity="0.75"/>
<path d="M20.9959 12.2931C20.9959 12.2617 20.9959 12.2302 20.9959 12.198C20.7942 12.3171 20.6101 12.4417 20.4129 12.5395C20.2771 12.6069 20.1394 12.6679 20.0001 12.724C19.614 12.8796 19.2158 12.995 18.811 13.0871C18.5272 13.1517 18.2402 13.2051 17.9519 13.2526C17.5875 13.3127 17.2193 13.3538 16.8514 13.3872C16.697 13.4012 16.5425 13.4153 16.3878 13.4277C16.3205 13.4331 16.2533 13.4379 16.1861 13.4424C16.1234 13.4467 16.0607 13.4504 15.998 13.4536C15.8699 13.4602 15.7419 13.4648 15.6139 13.4656C14.9652 13.4699 14.3153 13.4635 13.668 13.4262C13.1164 13.3944 12.5657 13.3269 12.0183 13.2492C11.4605 13.1701 10.9112 13.0409 10.3754 12.863C9.93884 12.718 9.51522 12.5434 9.13573 12.2767C9.09707 12.2495 9.05919 12.2212 9.0091 12.1848C9.0091 12.1848 9.0091 12.1848 9.0091 12.1849C9.00686 12.226 9.00423 12.2519 9.00423 12.2778C9.00401 13.0731 9.00518 13.8684 9.00293 14.6637C9.00254 14.7931 9.03715 14.9084 9.1041 15.0161C9.23366 15.2247 9.42556 15.3647 9.632 15.4858C10.1474 15.7882 10.7116 15.964 11.2902 16.0883C11.3638 16.1041 11.4377 16.1186 11.5115 16.1335C11.7556 16.1826 12.0008 16.2267 12.2468 16.2652C12.3924 16.2879 12.5381 16.3094 12.6841 16.3282C13.1578 16.3893 13.6353 16.4301 14.1125 16.4534C14.6942 16.4819 15.2766 16.4873 15.858 16.4582C16.0518 16.4485 16.2454 16.435 16.439 16.4172C16.9331 16.3718 17.4265 16.3126 17.918 16.2442C18.4742 16.1668 19.0195 16.0357 19.5508 15.8522C19.6174 15.8292 19.6836 15.8053 19.7494 15.7806C19.8454 15.7443 19.9402 15.7057 20.0332 15.6635C20.2561 15.5625 20.4685 15.4408 20.6607 15.2809C20.8784 15.0998 21.0045 14.8824 20.9998 14.5815C20.9879 13.8189 20.9959 13.0559 20.9959 12.2931Z" fill="#C3C3C3"/>
<path d="M20.9958 16.1995C20.9958 16.1738 20.9934 16.148 20.9915 16.1122C20.9698 16.1264 20.9574 16.1351 20.9445 16.1428C20.7337 16.2684 20.531 16.4109 20.3104 16.5161C19.688 16.8128 19.0237 16.9769 18.3496 17.108C17.7844 17.2178 17.2148 17.2959 16.6416 17.3362C16.0917 17.3749 15.5396 17.4038 14.9887 17.4007C14.4054 17.3975 13.8219 17.3592 13.2395 17.3213C12.8978 17.2991 12.556 17.2608 12.218 17.2065C11.8191 17.1424 11.422 17.0633 11.0284 16.9723C10.523 16.8555 10.0297 16.6964 9.56737 16.4566C9.37689 16.3578 9.19673 16.2392 9.00729 16.1269C9.00634 16.1368 9.00439 16.1473 9.00439 16.1579C9.00439 16.9856 9.00435 17.8133 9.00526 18.6411C9.0053 18.6757 9.01169 18.711 9.02001 18.7447C9.07446 18.9646 9.22322 19.1171 9.39393 19.2493C9.74055 19.5178 10.1419 19.6774 10.5536 19.812C11.1651 20.012 11.7922 20.146 12.4304 20.2226C12.9181 20.2811 13.407 20.3408 13.8971 20.3664C14.453 20.3953 15.0115 20.4071 15.5677 20.3889C16.1558 20.3697 16.744 20.3214 17.3291 20.2576C17.7436 20.2123 18.1546 20.1285 18.5643 20.047C19.0836 19.9437 19.59 19.7928 20.0715 19.5689C20.3496 19.4396 20.6141 19.2873 20.8173 19.0496C20.9331 18.9142 20.9982 18.7613 20.9975 18.5772C20.994 17.7847 20.996 16.9921 20.9958 16.1995Z" fill="#C3C3C3"/>
<path d="M12.5437 9.15463C12.1116 9.21438 11.6819 9.29761 11.2551 9.38894C10.8064 9.48498 10.3686 9.62221 9.95073 9.81584C9.66219 9.94959 9.38641 10.103 9.17501 10.3492C8.95472 10.6057 8.94143 10.8923 9.14058 11.1639C9.26255 11.3301 9.4246 11.452 9.5995 11.5571C10.0648 11.8369 10.5758 11.9995 11.097 12.1334C11.844 12.3251 12.605 12.4356 13.3725 12.4949C13.3851 12.4959 13.3979 12.4967 13.4106 12.4977C13.8695 12.5321 14.328 12.5475 14.7186 12.5648C14.7759 12.5673 14.8318 12.5699 14.886 12.5726C15.2886 12.5598 15.6068 12.5546 15.915 12.5404C15.954 12.5386 15.9928 12.5367 16.0315 12.5346C16.0692 12.5325 16.1068 12.5305 16.1445 12.5284C16.4354 12.5125 16.7267 12.4948 17.0153 12.4589C17.0321 12.4568 17.0489 12.4549 17.0657 12.4527C17.5493 12.3888 18.0313 12.309 18.5109 12.2194C18.5469 12.2127 18.5826 12.2051 18.6185 12.1979C19.0151 12.1178 19.403 12.0056 19.7787 11.8554C19.863 11.8218 19.9468 11.7869 20.0298 11.7493C20.3044 11.6251 20.5657 11.4789 20.7768 11.2579C21.0675 10.9535 21.0662 10.6053 20.7772 10.3008C20.632 10.1479 20.4614 10.0295 20.2769 9.93168C19.5594 9.55129 18.7799 9.36931 17.9881 9.23608C17.5814 9.16766 17.1705 9.11675 16.7595 9.08215C16.264 9.04043 15.7667 9.00898 15.2698 9.0016C14.8388 8.99517 14.4069 9.00881 13.976 9.03016C13.918 9.03305 13.86 9.03555 13.802 9.0387C13.3816 9.06153 12.9606 9.09695 12.5437 9.15463Z" fill="#C3C3C3"/>
</svg>
