<svg width="30" height="30" viewBox="0 0 30 30" fill="none" xmlns="http://www.w3.org/2000/svg">
<rect x="0.5" y="0.5" width="29" height="29" rx="4.5" stroke="#C2C9D1"/>
<rect x="0.5" y="0.5" width="29" height="29" rx="4.5" stroke="white" stroke-opacity="0.75"/>
<path d="M21.4375 22H8.56198C8.4881 22 8.41494 21.9854 8.34669 21.9572C8.27844 21.9289 8.21644 21.8875 8.16425 21.8352C8.11205 21.783 8.07067 21.721 8.04249 21.6528C8.01431 21.5845 7.99987 21.5114 8 21.4376V8.56188C8 8.41286 8.05926 8.26994 8.16475 8.16457C8.27023 8.0592 8.4133 8 8.56248 8C8.71166 8 8.85473 8.0592 8.96021 8.16457C9.0657 8.26994 9.12496 8.41286 9.12496 8.56188V20.8752H21.4375C21.5867 20.8752 21.7298 20.9344 21.8353 21.0398C21.9407 21.1452 22 21.2881 22 21.4371C22 21.5861 21.9407 21.7291 21.8353 21.8344C21.7298 21.9398 21.5867 21.999 21.4375 21.999V22ZM10.0229 19.4988L11.8469 16.2404C11.8876 16.1676 11.9542 16.1128 12.0335 16.0869C12.1128 16.061 12.199 16.0658 12.2748 16.1005L14.0118 16.9086L15.8647 14.2426C15.9102 14.1768 15.9781 14.1298 16.0558 14.1103C16.1334 14.0909 16.2155 14.1002 16.2867 14.1367L17.9966 15.0077L20.5026 11.0871C20.6475 10.8583 21.0005 10.9622 21.0005 11.2319V19.3499C21.0005 19.6816 20.7305 19.9523 20.3976 19.9523H10.3029C10.2493 19.9526 10.1965 19.9392 10.1496 19.9133C10.1027 19.8874 10.0633 19.8498 10.0352 19.8042C10.007 19.7586 9.99113 19.7066 9.98899 19.6531C9.98684 19.5996 9.99853 19.5464 10.0229 19.4988Z" fill="#101010" fill-opacity="0.25"/>
</svg>
