<svg width="20" height="20" viewBox="0 0 20 20" fill="none" xmlns="http://www.w3.org/2000/svg">
<path d="M15.7136 7.64434C15.7136 12.4011 12.7105 15.8263 8.29338 15.9766C6.42535 16.127 5.14556 15.5366 4 14.6451C5.27979 14.7954 7.00309 14.3554 7.84928 13.4534C6.57008 13.4534 5.84761 12.7018 5.42451 11.6812H6.57008C5.42393 11.2315 4.55732 10.3405 4.55732 8.85859C4.83568 9.00892 5.12514 9.14825 5.70288 9.14825C4.70204 8.55732 4.13422 6.62442 4.84619 5.43279C6.12597 6.91469 7.69463 8.25605 10.2851 8.3966C9.56266 5.43279 13.2882 3.92949 14.8575 5.87277C15.5794 5.72244 16.003 5.43279 16.5603 5.12113C16.4156 5.87277 15.9925 6.31276 15.4142 6.60303C15.982 6.60303 16.4156 6.4527 16.8387 6.16305C16.7045 6.75336 16.1367 7.35468 15.7136 7.64434V7.64434Z" fill="#616568"/>
</svg>
