<svg width="8" height="11" viewBox="0 0 8 11" fill="none" xmlns="http://www.w3.org/2000/svg">
<path d="M3.97049 6.01403e-07L3.96318 6.00764e-07C3.86587 0.00150931 3.77129 0.0352903 3.6921 0.0968281L3.6875 0.100444L3.68883 0.0995222C3.65745 0.121521 3.62811 0.146783 3.60122 0.174955L3.59366 0.183026L0.168237 3.90405C-0.0560783 4.14772 -0.0560783 4.54282 0.168237 4.7865L0.175013 4.79373C0.399796 5.03009 0.75836 5.02769 0.9804 4.7865L3.49115 2.05905L3.49115 10.4793C3.49115 10.7669 3.70574 11 3.9704 11L4.03752 11C4.29852 10.9953 4.50883 10.764 4.50883 10.4793L4.50883 2.05903L7.01959 4.78649C7.24387 5.03014 7.60747 5.03014 7.83176 4.78649C8.05607 4.54284 8.05608 4.14773 7.83178 3.90405L4.40609 0.182725L4.39882 0.174969C4.37438 0.149357 4.34791 0.126144 4.31971 0.1056L4.31252 0.100444L4.31383 0.101489C4.23151 0.0354163 4.13185 -0.000158648 4.02954 6.06566e-07L3.97049 6.01403e-07Z" fill="#3CC13B"/>
<path d="M3.97049 6.01403e-07L3.96318 6.00764e-07C3.86587 0.00150931 3.77129 0.0352903 3.6921 0.0968281L3.6875 0.100444L3.68883 0.0995222C3.65745 0.121521 3.62811 0.146783 3.60122 0.174955L3.59366 0.183026L0.168237 3.90405C-0.0560783 4.14772 -0.0560783 4.54282 0.168237 4.7865L0.175013 4.79373C0.399796 5.03009 0.75836 5.02769 0.9804 4.7865L3.49115 2.05905L3.49115 10.4793C3.49115 10.7669 3.70574 11 3.9704 11L4.03752 11C4.29852 10.9953 4.50883 10.764 4.50883 10.4793L4.50883 2.05903L7.01959 4.78649C7.24387 5.03014 7.60747 5.03014 7.83176 4.78649C8.05607 4.54284 8.05608 4.14773 7.83178 3.90405L4.40609 0.182725L4.39882 0.174969C4.37438 0.149357 4.34791 0.126144 4.31971 0.1056L4.31252 0.100444L4.31383 0.101489C4.23151 0.0354163 4.13185 -0.000158648 4.02954 6.06566e-07L3.97049 6.01403e-07Z" fill="black" fill-opacity="0.25"/>
</svg>
